<svg width="5823" height="894" viewBox="0 0 5823 894" fill="none" xmlns="http://www.w3.org/2000/svg">
<path d="M640.883 0.192627L695.428 20.0455L608.05 260.116L840.743 344.809L811.619 424.827L578.926 340.133L425.349 762.081C534.431 801.784 675.606 787.265 774.796 740.975L891.147 783.323C742.348 852.744 542.976 891.394 377.691 893.02L323.146 873.167C197.558 765.672 69.6832 607.914 0.318726 459.088L116.67 501.437C162.917 600.662 261.722 702.526 370.804 742.228L524.38 320.281L291.669 235.581L320.793 155.563L553.504 240.263L640.883 0.192627Z" fill="#FCE38A"/>
<path d="M1340.1 532.375L1166.41 330.624L998.22 532.375C996.928 533.882 996.283 535.711 996.283 537.863C996.283 544.104 999.404 547.224 1005.64 547.224C1008.23 547.224 1010.38 546.149 1012.1 543.996L1063.11 482.664H1273.59L1326.54 543.996C1328.48 546.149 1330.84 547.224 1333.64 547.224C1339.45 547.224 1342.36 544.319 1342.36 538.509C1342.36 536.142 1341.6 534.097 1340.1 532.375ZM1078.28 464.587L1166.74 358.385L1258.42 464.587H1078.28ZM1661.31 337.403C1655.29 337.403 1652.28 340.415 1652.28 346.441V522.046L1394.01 328.364V540.123C1394.01 545.933 1397.02 548.838 1403.05 548.838C1409.08 548.838 1412.09 545.933 1412.09 540.123V364.195L1670.35 557.877V346.441C1670.35 340.415 1667.34 337.403 1661.31 337.403ZM1984.79 379.044C1971.66 363.765 1954.55 351.821 1933.46 343.213C1912.37 334.606 1889.88 330.301 1865.99 330.301C1826.6 330.301 1793.03 340.846 1765.27 361.936C1736.64 383.672 1722.33 410.14 1722.33 441.345C1722.33 472.55 1736.64 499.02 1765.27 520.754C1793.03 541.845 1826.6 552.389 1865.99 552.389C1889.88 552.389 1912.37 548.085 1933.46 539.477C1954.55 530.869 1971.66 518.926 1984.79 503.646C1988.67 498.911 1988.45 494.715 1984.15 491.057C1982.42 489.55 1980.38 488.797 1978.01 488.797C1975.43 488.797 1973.28 489.765 1971.56 491.702C1959.72 505.045 1944.49 515.536 1925.87 523.175C1907.26 530.815 1887.3 534.635 1865.99 534.635C1831.34 534.635 1801.75 525.489 1777.21 507.197C1752.68 488.904 1740.41 466.953 1740.41 441.345C1740.41 415.737 1752.68 393.787 1777.21 375.493C1801.75 357.2 1831.34 348.055 1865.99 348.055C1887.3 348.055 1907.26 351.875 1925.87 359.515C1944.49 367.154 1959.72 377.645 1971.56 390.988C1973.28 392.925 1975.43 393.893 1978.01 393.893C1980.38 393.893 1982.42 393.14 1984.15 391.634C1988.45 387.975 1988.67 383.779 1984.79 379.044ZM2311.5 339.017C2305.47 339.017 2302.46 342.029 2302.46 348.055V435.857H2062.27V348.055C2062.27 342.029 2059.26 339.017 2053.23 339.017C2047.21 339.017 2044.19 342.029 2044.19 348.055V541.737C2044.19 547.762 2047.21 550.775 2053.23 550.775C2059.26 550.775 2062.27 547.762 2062.27 541.737V453.934H2302.46V541.737C2302.46 547.762 2305.47 550.775 2311.5 550.775C2317.52 550.775 2320.54 547.762 2320.54 541.737V348.055C2320.54 342.029 2317.52 339.017 2311.5 339.017ZM2511.97 331.915C2472.81 331.915 2439.23 342.568 2411.25 363.873C2382.63 385.608 2368.31 412.077 2368.31 443.282C2368.31 474.487 2382.63 500.957 2411.25 522.691C2439.01 543.782 2472.59 554.326 2511.97 554.326C2551.36 554.326 2584.83 543.781 2612.37 522.691C2641 500.741 2655.31 474.271 2655.31 443.282C2655.31 412.293 2641 385.823 2612.37 363.873C2584.4 342.568 2550.93 331.915 2511.97 331.915ZM2637.56 443.282C2637.56 468.891 2625.29 490.789 2600.75 508.972C2576.22 527.156 2546.62 536.249 2511.97 536.249C2477.32 536.249 2447.73 527.157 2423.2 508.972C2398.66 490.788 2386.39 468.89 2386.39 443.282C2386.39 417.458 2398.66 395.452 2423.2 377.269C2447.73 359.085 2477.32 349.992 2511.97 349.992C2546.62 349.992 2576.22 359.084 2600.75 377.269C2625.29 395.453 2637.56 417.458 2637.56 443.282ZM2977.5 530.761L2905.18 482.664H2907.77C2928.21 482.664 2945.59 475.455 2959.9 461.036C2974.21 446.617 2981.37 429.293 2981.37 409.065C2981.37 388.62 2974.21 371.242 2959.9 356.932C2945.59 342.622 2928.21 335.466 2907.77 335.466H2705.03V538.186C2705.03 544.211 2708.04 547.224 2714.07 547.224C2720.09 547.224 2723.11 544.211 2723.11 538.186V482.664H2872.9L2967.49 545.61C2969 546.686 2970.61 547.224 2972.33 547.224C2975.56 547.224 2978.03 545.825 2979.76 543.028C2980.83 541.521 2981.37 539.907 2981.37 538.186C2981.37 534.958 2980.08 532.483 2977.5 530.761ZM2723.11 353.543H2907.77C2923.05 353.543 2936.12 358.977 2946.99 369.844C2957.86 380.712 2963.29 393.785 2963.29 409.065C2963.29 424.345 2957.86 437.418 2946.99 448.285C2936.12 459.152 2923.05 464.587 2907.77 464.587H2723.11V353.543ZM3419.13 337.403C3413.1 337.403 3410.09 340.415 3410.09 346.441V522.046L3151.83 328.364V540.123C3151.83 545.933 3154.84 548.838 3160.86 548.838C3166.89 548.838 3169.9 545.933 3169.9 540.123V364.195L3428.17 557.877V346.441C3428.17 340.415 3425.16 337.403 3419.13 337.403ZM3747.77 450.384C3753.8 450.384 3756.81 447.371 3756.81 441.345C3756.81 435.319 3753.8 432.307 3747.77 432.307H3498.55V353.543H3747.77C3753.8 353.543 3756.81 350.53 3756.81 344.504C3756.81 338.479 3753.8 335.466 3747.77 335.466H3480.47V547.224H3747.77C3753.8 547.224 3756.81 544.211 3756.81 538.186C3756.81 532.16 3753.8 529.147 3747.77 529.147H3498.55V450.384H3747.77ZM4072.54 335.466H3814.27C3808.25 335.466 3805.23 338.479 3805.23 344.504C3805.23 350.53 3808.25 353.543 3814.27 353.543H3934.37V538.186C3934.37 544.211 3937.38 547.224 3943.41 547.224C3949.43 547.224 3952.45 544.211 3952.45 538.186V353.543H4072.54C4078.57 353.543 4081.58 350.53 4081.58 344.504C4081.58 338.479 4078.57 335.466 4072.54 335.466ZM4497.71 337.403C4493.62 337.403 4490.82 339.124 4489.31 342.568L4410.87 518.818L4314.66 326.105L4218.14 518.818L4139.69 342.568C4138.18 339.124 4135.49 337.403 4131.62 337.403C4125.81 337.403 4122.9 340.308 4122.9 346.118C4122.9 347.41 4123.12 348.701 4123.55 349.992L4217.17 561.105L4314.66 366.455L4411.83 561.105L4505.78 349.992C4506.21 348.916 4506.42 347.732 4506.42 346.441C4506.42 340.415 4503.52 337.403 4497.71 337.403ZM4692.7 331.915C4653.53 331.915 4619.95 342.568 4591.97 363.873C4563.35 385.608 4549.04 412.077 4549.04 443.282C4549.04 474.487 4563.35 500.957 4591.97 522.691C4619.74 543.782 4653.31 554.326 4692.7 554.326C4732.08 554.326 4765.55 543.781 4793.1 522.691C4821.72 500.741 4836.03 474.271 4836.03 443.282C4836.03 412.293 4821.72 385.823 4793.1 363.873C4765.12 342.568 4731.65 331.915 4692.7 331.915ZM4818.28 443.282C4818.28 468.891 4806.01 490.789 4781.48 508.972C4756.94 527.156 4727.35 536.249 4692.7 536.249C4658.05 536.249 4628.45 527.157 4603.92 508.972C4579.38 490.788 4567.12 468.89 4567.12 443.282C4567.12 417.458 4579.38 395.452 4603.92 377.269C4628.45 359.085 4658.05 349.992 4692.7 349.992C4727.35 349.992 4756.94 359.084 4781.48 377.269C4806.01 395.453 4818.28 417.458 4818.28 443.282ZM5158.22 530.761L5085.91 482.664H5088.49C5108.93 482.664 5126.31 475.455 5140.63 461.036C5154.94 446.617 5162.09 429.293 5162.09 409.065C5162.09 388.62 5154.94 371.242 5140.63 356.932C5126.31 342.622 5108.93 335.466 5088.49 335.466H4885.75V538.186C4885.75 544.211 4888.76 547.224 4894.79 547.224C4900.82 547.224 4903.83 544.211 4903.83 538.186V482.664H5053.62L5148.21 545.61C5149.72 546.686 5151.33 547.224 5153.05 547.224C5156.28 547.224 5158.76 545.825 5160.48 543.028C5161.55 541.521 5162.09 539.907 5162.09 538.186C5162.09 534.958 5160.8 532.483 5158.22 530.761ZM4903.83 353.543H5088.49C5103.77 353.543 5116.84 358.977 5127.71 369.844C5138.58 380.712 5144.02 393.785 5144.02 409.065C5144.02 424.345 5138.58 437.418 5127.71 448.285C5116.84 459.152 5103.77 464.587 5088.49 464.587H4903.83V353.543ZM5490.41 533.666L5370 413.261L5488.15 354.188C5491.38 352.682 5492.99 350.1 5492.99 346.441C5492.99 342.998 5491.6 340.415 5488.8 338.694C5486 336.972 5483.09 336.865 5480.08 338.371L5234.73 461.036V346.442C5234.73 340.416 5231.72 337.403 5225.69 337.403C5219.66 337.403 5216.65 340.416 5216.65 346.442V540.123C5216.65 545.933 5219.66 548.839 5225.69 548.839C5231.72 548.839 5234.73 545.933 5234.73 540.123V481.05L5353.21 421.654L5477.5 546.256C5479.22 547.978 5481.37 548.839 5483.96 548.839C5489.98 548.839 5492.99 545.826 5492.99 539.8C5492.99 537.433 5492.13 535.388 5490.41 533.666ZM5545.94 473.625C5545.94 495.79 5559.28 514.46 5585.97 529.631C5612.66 544.803 5645.37 552.389 5684.11 552.389C5722.63 552.389 5754.06 548.193 5778.38 539.8C5807.65 529.685 5822.28 514.836 5822.28 495.253C5822.28 474.808 5809.8 460.068 5784.83 451.029C5770.63 445.864 5742.97 440.484 5701.87 434.889L5669.91 430.37C5630.95 424.775 5605.12 419.825 5592.43 415.521C5573.49 409.065 5564.02 399.704 5564.02 387.437C5564.02 375.817 5575.21 366.347 5597.59 359.031C5619.98 351.715 5648.82 348.056 5684.11 348.056C5716.61 348.056 5744.75 354.081 5768.53 366.132C5792.31 378.184 5804.2 392.494 5804.2 409.065C5804.2 415.091 5807.22 418.104 5813.24 418.104C5819.27 418.104 5822.28 415.091 5822.28 409.065C5822.28 386.9 5808.94 368.231 5782.25 353.059C5755.56 337.887 5722.85 330.301 5684.11 330.301C5645.59 330.301 5614.16 334.498 5589.84 342.891C5560.58 353.005 5545.94 367.855 5545.94 387.437C5545.94 407.882 5558.96 422.729 5585 431.984C5597.49 436.288 5625.03 441.668 5667.65 448.124L5682.82 450.384L5699.28 452.643C5738.67 458.024 5764.82 462.973 5777.73 467.492C5795.38 473.518 5804.2 482.772 5804.2 495.253C5804.2 506.874 5793.01 516.344 5770.63 523.66C5748.25 530.976 5719.41 534.635 5684.11 534.635C5651.61 534.635 5623.47 528.609 5599.69 516.558C5575.91 504.507 5564.02 490.197 5564.02 473.626C5564.02 467.6 5561 464.587 5554.98 464.587C5548.95 464.587 5545.94 467.6 5545.94 473.625Z" fill="white"/>
</svg>
